<?xml version="1.0" encoding="utf-8"?>
<!-- Generator: Adobe Illustrator 23.0.3, SVG Export Plug-In . SVG Version: 6.00 Build 0)  -->
<svg version="1.1" id="Слой_1" xmlns="http://www.w3.org/2000/svg" xmlns:xlink="http://www.w3.org/1999/xlink" x="0px" y="0px"
	 viewBox="0 0 512 512" style="enable-background:new 0 0 512 512;" xml:space="preserve">
<style type="text/css">
	.st0{fill:#FFFFFF;}
</style>
<path class="st0" d="M512,301c0-82.7-61-150-136-150c-16.4,0-32.5,3.3-47.7,9.6C314.3,69.4,246.8,0,166,0C68.8,0,0,95.4,0,196
	c0,101.6,66.5,185.3,151,194.2V482H0v30h512v-30H391v-31.9C459,441.8,512,378.1,512,301z M376,181c58.4,0,106,53.8,106,120
	c0,60.4-39.6,110.5-91,118.8v-51.3l54-40.5l-18-24l-36,27v-60h-30v60l-36-27l-18,24l54,40.5v51.2c-38.5-6.4-71.2-36.9-84.1-79.2
	c2.3-2.5,4.5-5,6.7-7.6C314.2,296.2,331,247.6,331,196c0-1.1,0-2.3,0-3.4C345,185,360.4,181,376,181z M30,196c0-91.5,61-166,136-166
	c74.4,0,135,74.5,135,166c0,84.8-52.6,154.8-120,164v-52.8l55.6-55.6l-21.2-21.2L181,264.8v-47.6l55.6-55.6l-21.2-21.2L181,174.8
	V151h-30v23.8l-34.4-34.4l-21.2,21.2l55.6,55.6v47.6l-34.4-34.4l-21.2,21.2l55.6,55.6V360C83,350.9,30,280.8,30,196z M181,482v-91.8
	c25.7-2.7,50.1-12.3,71.7-28.1c19.4,48.3,60.7,82.1,108.3,88V482H181z"/>
</svg>
