<svg width="40" height="40" viewBox="0 0 40 40" fill="none" xmlns="http://www.w3.org/2000/svg">
<path d="M14.1979 29.25C14.1979 32.4479 16.802 35.0521 20 35.0521C23.1979 35.0521 25.802 32.4479 25.802 29.25C25.802 27.3646 24.8958 25.6875 23.4895 24.625C24.8854 23.5625 25.802 21.8854 25.802 20C25.802 18.1146 24.8958 16.4375 23.4895 15.375C24.8854 14.3125 25.802 12.6354 25.802 10.75C25.802 7.5521 23.1979 4.94794 20 4.94794C16.802 4.94794 14.1979 7.5521 14.1979 10.75C14.1979 12.6354 15.1041 14.3125 16.5104 15.375C15.1145 16.4375 14.1979 18.1146 14.1979 20C14.1979 21.8854 15.1041 23.5625 16.5104 24.625C15.1041 25.6875 14.1979 27.3646 14.1979 29.25ZM16.5416 10.75C16.5416 8.84377 18.0937 7.29169 20 7.29169C21.9062 7.29169 23.4583 8.84377 23.4583 10.75C23.4583 12.6563 21.9062 14.2084 20 14.2084C18.0937 14.2084 16.5416 12.6563 16.5416 10.75ZM16.5416 20C16.5416 18.0938 18.0937 16.5417 20 16.5417C21.9062 16.5417 23.4583 18.0938 23.4583 20C23.4583 21.9063 21.9062 23.4584 20 23.4584C18.0937 23.4584 16.5416 21.9063 16.5416 20ZM23.4583 29.25C23.4583 31.1563 21.9062 32.7084 20 32.7084C18.0937 32.7084 16.5416 31.1563 16.5416 29.25C16.5416 27.3438 18.0937 25.7917 20 25.7917C21.9062 25.7917 23.4583 27.3438 23.4583 29.25Z" fill="white"/>
<path d="M40 4.94792H30.7812V0H9.21875V4.94792H0V10.3333L6.26042 14.1979H0V19.5833L6.26042 23.4479H0V28.8333L9.21875 34.5208V40H30.7812V34.5312L40 28.8437V23.4583H33.7396L40 19.5938V14.2083H33.7396L40 10.3333V4.94792ZM2.34375 7.29167H9.21875V13.2708L2.34375 9.03125V7.29167ZM2.34375 16.5417H9.21875V22.5208L2.34375 18.2812V16.5417ZM2.34375 27.5312V25.7917H9.21875V31.7708L2.34375 27.5312ZM28.4375 37.6562H11.5625V2.34375H28.4375V37.6562ZM37.6562 27.5312L30.7812 31.7708V25.7917H37.6562V27.5312ZM37.6562 18.2812L30.7812 22.5208V16.5417H37.6562V18.2812ZM37.6562 9.03125L30.7812 13.2708V7.29167H37.6562V9.03125Z" fill="white"/>
</svg>
