<svg width="33" height="40" viewBox="0 0 33 40" fill="none" xmlns="http://www.w3.org/2000/svg">
<path d="M21.0938 20.0078V15.625L32.8125 0H22.8516L16.5156 8.44531L9.94531 0H0C0.625 0.828125 11.1719 14.8906 11.7188 15.625V20.0078C8.25 21.7344 5.85938 25.3203 5.85938 29.4531C5.85938 35.2656 10.5938 40 16.4062 40C22.2188 40 26.9531 35.2656 26.9531 29.4531C26.9531 25.3203 24.5625 21.7344 21.0938 20.0078ZM24.0234 2.34375H28.125L19.3359 14.0625H15.2344L24.0234 2.34375ZM4.6875 2.34375H8.80469L15.0625 10.3906L12.8906 13.2812L4.6875 2.34375ZM14.0625 16.4062H18.75V19.1719C18 19 17.2109 18.9062 16.4062 18.9062C15.6016 18.9062 14.8125 19 14.0625 19.1719V16.4062ZM16.4062 37.6562C11.8828 37.6562 8.20312 33.9766 8.20312 29.4531C8.20312 24.9297 11.8828 21.25 16.4062 21.25C20.9297 21.25 24.6094 24.9297 24.6094 29.4531C24.6094 33.9766 20.9297 37.6562 16.4062 37.6562Z" fill="white"/>
<path d="M16.4062 23.5938C13.1719 23.5938 10.5469 26.2188 10.5469 29.4531C10.5469 32.6875 13.1719 35.3125 16.4062 35.3125C19.6406 35.3125 22.2656 32.6875 22.2656 29.4531C22.2656 26.2188 19.6406 23.5938 16.4062 23.5938ZM16.4062 32.9688C14.4688 32.9688 12.8906 31.3906 12.8906 29.4531C12.8906 27.5156 14.4688 25.9375 16.4062 25.9375C18.3438 25.9375 19.9219 27.5156 19.9219 29.4531C19.9219 31.3906 18.3438 32.9688 16.4062 32.9688Z" fill="white"/>
</svg>
