<svg width="40" height="40" viewBox="0 0 40 40" fill="none" xmlns="http://www.w3.org/2000/svg">
<path d="M7.71875 10.7604H5.375V13.1042H7.71875V10.7604Z" fill="white"/>
<path d="M13.1041 10.7604H10.7604V13.1042H13.1041V10.7604Z" fill="white"/>
<path d="M18.4791 10.7604H16.1354V13.1042H18.4791V10.7604Z" fill="white"/>
<path d="M23.8646 10.7604H21.5209V13.1042H23.8646V10.7604Z" fill="white"/>
<path d="M7.71875 16.1354H5.375V18.4791H7.71875V16.1354Z" fill="white"/>
<path d="M13.1041 16.1354H10.7604V18.4791H13.1041V16.1354Z" fill="white"/>
<path d="M18.4791 16.1354H16.1354V18.4791H18.4791V16.1354Z" fill="white"/>
<path d="M23.8646 16.1354H21.5209V18.4791H23.8646V16.1354Z" fill="white"/>
<path d="M34.625 16.1354H32.2812V18.4791H34.625V16.1354Z" fill="white"/>
<path d="M34.625 21.5209H32.2812V23.8646H34.625V21.5209Z" fill="white"/>
<path d="M34.625 26.8958H32.2812V29.2396H34.625V26.8958Z" fill="white"/>
<path d="M34.625 32.2812H32.2812V34.625H34.625V32.2812Z" fill="white"/>
<path d="M7.71875 21.5209H5.375V23.8646H7.71875V21.5209Z" fill="white"/>
<path d="M13.1041 21.5209H10.7604V23.8646H13.1041V21.5209Z" fill="white"/>
<path d="M18.4791 21.5209H16.1354V23.8646H18.4791V21.5209Z" fill="white"/>
<path d="M13.1041 26.8958H10.7604V29.2396H13.1041V26.8958Z" fill="white"/>
<path d="M18.4791 26.8958H16.1354V29.2396H18.4791V26.8958Z" fill="white"/>
<path d="M23.8646 21.5209H21.5209V23.8646H23.8646V21.5209Z" fill="white"/>
<path d="M7.71875 26.8958H5.375V29.2396H7.71875V26.8958Z" fill="white"/>
<path d="M23.8646 26.8958H21.5209V29.2396H23.8646V26.8958Z" fill="white"/>
<path d="M7.71875 32.2812H5.375V34.625H7.71875V32.2812Z" fill="white"/>
<path d="M23.8646 32.2812H21.5209V34.625H23.8646V32.2812Z" fill="white"/>
<path d="M33.9375 5.375H28.5625L23.1771 0H6.0625L0 6.0625V40H40V11.4479L33.9375 5.375ZM36 10.7604H29.2396V7.71875H32.9583L36 10.7604ZM25.2396 5.375H17.7917L14.7604 2.34375H22.2083L25.2396 5.375ZM7.04167 2.34375H14.4792L11.4479 5.375H4L7.04167 2.34375ZM13.1042 37.6562V34.625H16.1354V37.6562H13.1042ZM18.4792 37.6562V32.2812H10.7604V37.6562H2.34375V7.71875H12.4167L14.625 5.52083L16.8333 7.72917H26.9062V37.6667H18.4792V37.6562ZM29.2396 37.6562V13.1042H37.6562V37.6562H29.2396Z" fill="white"/>
</svg>
