<svg width="40" height="40" viewBox="0 0 40 40" fill="none" xmlns="http://www.w3.org/2000/svg">
<g clip-path="url(#clip0)">
<path d="M27.3672 0C20.3984 0 14.7344 5.67188 14.7344 12.6328V16.3594H12.8906V23.6406H14.7266V27.3672C14.7266 28.5234 13.7891 29.4609 12.6328 29.4609C11.4766 29.4609 10.5391 28.5234 10.5391 27.3672V0H0V27.3672C0 34.3281 5.67188 40 12.6328 40C19.5938 40 25.2656 34.3281 25.2656 27.3672V23.6406H27.1094V16.3594H25.2734V12.6328C25.2734 11.4766 26.2109 10.5391 27.3672 10.5391C28.5234 10.5391 29.4609 11.4766 29.4609 12.6328V40H40.0078V12.6328C40 5.67188 34.3281 0 27.3672 0ZM24.7656 18.7031V21.2969H15.2344V18.7031H24.7656ZM22.9297 27.3672C22.9297 33.0391 18.3125 37.6562 12.6406 37.6562C6.96875 37.6562 2.34375 33.0391 2.34375 27.3672V2.34375H8.20312V27.3672C8.20312 29.8125 10.1953 31.8047 12.6406 31.8047C15.0859 31.8047 17.0781 29.8125 17.0781 27.3672V23.6406H22.9375L22.9297 27.3672ZM37.6562 37.6562H31.7969V12.6328C31.7969 10.1875 29.8047 8.19531 27.3594 8.19531C24.9141 8.19531 22.9219 10.1875 22.9219 12.6328V16.3594H17.0625V12.6328C17.0703 6.96094 21.6875 2.34375 27.3672 2.34375C33.0391 2.34375 37.6562 6.96094 37.6562 12.6328V37.6562Z" fill="white"/>
</g>
<defs>
<clipPath id="clip0">
<rect width="40" height="40" fill="white"/>
</clipPath>
</defs>
</svg>
