<svg width="40" height="34" viewBox="0 0 40 34" fill="none" xmlns="http://www.w3.org/2000/svg">
<path d="M7.5 19.5078H9.84375C9.84375 17.4844 8.19531 15.8359 6.17188 15.8359H4.50781V18.1797H6.17188C6.90625 18.1797 7.5 18.7734 7.5 19.5078Z" fill="white"/>
<path d="M6.02344 21.8828L4.66406 23.7891C6.60938 25.1797 8.89844 25.875 11.1797 25.875C13.4609 25.875 15.7422 25.1797 17.6953 23.7891L16.3359 21.8828C13.2422 24.0859 9.10156 24.0859 6.02344 21.8828Z" fill="white"/>
<path d="M17.6562 0V9.16406H0V28.3828L2.14062 30.1641C4.75781 32.3516 7.96094 33.4375 11.1719 33.4375C14.3828 33.4375 17.5859 32.3438 20.2031 30.1641L22.3438 28.3828V22.6953C24.375 23.75 26.6016 24.2734 28.8281 24.2734C32.0391 24.2734 35.2422 23.1797 37.8594 21L40 19.2188V0H17.6562ZM37.6562 18.125L36.3594 19.2031C31.9922 22.8438 25.6562 22.8438 21.2969 19.2031L20 18.125V2.34375H37.6562V18.125ZM3.64062 28.3672L2.34375 27.2891V11.5078H17.6562V15.8281H16.1719C14.1484 15.8281 12.5 17.4766 12.5 19.5H14.8438C14.8438 18.7656 15.4375 18.1719 16.1719 18.1719H17.6562V19.2188L19.7969 21C19.8672 21.0547 19.9297 21.1094 20 21.1641V27.2812L18.7031 28.3594C14.3438 32.0078 8 32.0078 3.64062 28.3672Z" fill="white"/>
<path d="M22.1641 10.2109H23.8281C25.8516 10.2109 27.5 8.5625 27.5 6.53906H25.1562C25.1562 7.27344 24.5625 7.86719 23.8281 7.86719H22.1641V10.2109Z" fill="white"/>
<path d="M33.8281 10.2109H35.4922V7.86719H33.8281C33.0938 7.86719 32.5 7.27344 32.5 6.53906H30.1562C30.1562 8.5625 31.8047 10.2109 33.8281 10.2109Z" fill="white"/>
<path d="M22.3125 14.3828L23.6719 16.2891C26.75 14.0859 30.8906 14.0859 33.9766 16.2891L35.3359 14.3828C31.4453 11.6016 26.2109 11.6016 22.3125 14.3828Z" fill="white"/>
</svg>
