<svg width="31" height="40" viewBox="0 0 31 40" fill="none" xmlns="http://www.w3.org/2000/svg">
<path d="M22.4844 23.5156H20.9688C22.4922 22.0234 23.4375 19.9531 23.4375 17.6562V12.9688C23.4375 12.6797 23.4141 12.3984 23.375 12.1172L25.7812 10.8125V17.6562H28.125V9.54688L30.4688 8.28125L15.2344 0L0.0078125 8.28125L7.10156 12.1172C7.0625 12.3906 7.03906 12.6797 7.03906 12.9688V17.6562C7.03906 19.9531 7.98438 22.0234 9.50781 23.5156H7.99219C3.57813 23.5156 0 27.0938 0 31.5V40H30.4688V31.5C30.4688 27.0938 26.8906 23.5156 22.4844 23.5156ZM8.14062 25.8594L14.0625 31.5078V34.8125L5.39844 26.4922C6.17188 26.0938 7.05469 25.8594 7.98438 25.8594H8.14062ZM16.4062 31.5078L22.3281 25.8594H22.4844C23.4141 25.8594 24.2969 26.0859 25.0703 26.4922L16.4062 34.8125V31.5078ZM4.92188 8.27344L15.2344 2.66406L25.5469 8.27344L22.5625 9.89062C21.5312 8.22656 19.6875 7.10938 17.5781 7.10938H12.8906C10.7891 7.10938 8.9375 8.22656 7.90625 9.89844L4.92188 8.27344ZM20.8906 11.7969H9.57812C10.0625 10.4297 11.3672 9.45312 12.8906 9.45312H17.5781C19.1094 9.45312 20.4062 10.4297 20.8906 11.7969ZM9.375 17.6562V14.1406H21.0938V17.6562C21.0938 20.8906 18.4688 23.5156 15.2344 23.5156C12 23.5156 9.375 20.8828 9.375 17.6562ZM18.9375 25.8594L15.2344 29.3906L11.5312 25.8594H18.9375ZM2.34375 31.5C2.34375 30.1719 2.80469 28.9531 3.57031 27.9922L13.6406 37.6562H7.03125V35.3125H4.6875V37.6562H2.34375V31.5ZM28.125 37.6562H25.7812V35.3125H23.4375V37.6562H16.8281L26.8906 27.9922C27.6563 28.9531 28.1172 30.1797 28.1172 31.5V37.6562H28.125Z" fill="white"/>
</svg>
