<svg width="40" height="40" viewBox="0 0 40 40" fill="none" xmlns="http://www.w3.org/2000/svg">
<path d="M38.677 14.0833C37.9166 13.4479 36.9583 13.1562 35.9791 13.2604C35.052 13.3542 34.2083 13.7812 33.5937 14.4687V6.02083C33.5937 4.07292 32.0103 2.48958 30.0624 2.48958C29.6145 2.48958 29.177 2.57292 28.7812 2.72917C28.4166 1.16667 27.0103 0 25.3437 0C23.677 0 22.2708 1.16667 21.9062 2.72917C21.5103 2.57292 21.0833 2.48958 20.6249 2.48958C18.677 2.48958 17.0937 4.07292 17.0937 6.02083V6.19792C16.7187 6.0625 16.3228 5.98958 15.9062 5.98958C13.9583 5.98958 12.3749 7.57292 12.3749 9.52083V11.6979C11.6041 12.1667 11.0416 12.9271 10.8124 13.8229C10.4374 13.6875 10.0312 13.6042 9.60409 13.6042C7.70826 13.6042 6.15617 15.1458 6.15617 17.0521V25.1042C5.56242 24.4688 4.77076 24.0833 3.90617 24C2.94784 23.9062 2.01034 24.1979 1.27076 24.8125C-0.187576 26.0208 -0.447993 28.1667 0.677007 29.6875L8.32284 40H31.9687V28.9792L39.2812 19.0833C40.4374 17.5208 40.1666 15.3229 38.677 14.0833ZM15.9166 8.33333C16.5728 8.33333 17.1041 8.86458 17.1041 9.52083V12.8333C16.5937 12 15.7291 11.4062 14.7291 11.25V9.52083C14.7291 8.86458 15.2603 8.33333 15.9166 8.33333ZM9.51034 37.6562L2.58326 28.2812C2.19784 27.7604 2.28117 27.0208 2.79159 26.5938C3.05201 26.3854 3.37492 26.2812 3.69784 26.3125C4.03117 26.3438 4.32284 26.5 4.53117 26.7604L8.52076 31.6667V17.0521C8.52076 16.4479 9.02076 15.9479 9.62492 15.9479C10.2291 15.9479 10.7291 16.4479 10.7291 17.0521V25.5104H13.0728V14.6458C13.0728 14.0417 13.5624 13.5417 14.177 13.5417C14.7812 13.5417 15.2812 14.0417 15.2812 14.6458V25.5H17.6249V17.0417C17.6249 16.4375 18.1145 15.9375 18.7291 15.9375C19.3333 15.9375 19.8333 16.4375 19.8333 17.0417V25.5H22.177V20.4167C22.177 19.8125 22.677 19.3125 23.2812 19.3125C23.8853 19.3125 24.3853 19.8125 24.3853 20.4167V31.5937C24.3853 33.3333 23.8437 34.9896 22.8124 36.3958L21.8853 37.6562H9.51034ZM37.3958 17.6875L29.6249 28.2083V37.6562H24.7812C26.052 35.875 26.7187 33.7917 26.7187 31.6042V20.4271C26.7187 18.5312 25.177 16.9792 23.2708 16.9792C22.8853 16.9792 22.5103 17.0417 22.1666 17.1562V17.0417C22.1666 15.3854 20.9999 14 19.4478 13.6771V6.02083C19.4478 5.36458 19.9791 4.83333 20.6353 4.83333C21.2916 4.83333 21.8228 5.36458 21.8228 6.02083V14.7812H24.1666V3.53125C24.1666 2.875 24.6978 2.34375 25.3541 2.34375C26.0103 2.34375 26.5416 2.875 26.5416 3.53125V14.7812H28.8853V6.02083C28.8853 5.36458 29.4166 4.83333 30.0728 4.83333C30.7291 4.83333 31.2603 5.36458 31.2603 6.02083V21.0625L35.3228 16.0729C35.552 15.7917 35.8645 15.625 36.2187 15.5937C36.5728 15.5625 36.9166 15.6667 37.1874 15.8958C37.7187 16.3333 37.8124 17.125 37.3958 17.6875Z" fill="white"/>
</svg>
