<svg width="40" height="40" viewBox="0 0 40 40" fill="none" xmlns="http://www.w3.org/2000/svg">
<path d="M35.4167 20.1458V13.9688C35.4167 10.4375 32.5417 7.5625 29.0104 7.5625C25.4792 7.5625 22.6042 10.4375 22.6042 13.9688V32.2708C22.6042 35.2396 20.1875 37.6562 17.2188 37.6562C14.25 37.6562 11.8333 35.2396 11.8333 32.2708V25.3542C14.6042 24.8854 16.9062 22.9167 17.7708 20.1562L21.1042 9.51042V3.51042C21.1042 1.57292 19.5312 0 17.5937 0H13V2.34375H17.5937C18.2396 2.34375 18.7604 2.86458 18.7604 3.51042V9.14583L17.3542 13.6562C16.2083 16.3854 13.5625 18.1667 10.5521 18.1667C7.54167 18.1667 4.89583 16.375 3.75 13.6562L2.34375 9.14583V3.51042C2.34375 2.86458 2.86458 2.34375 3.51042 2.34375H8.71875V0H3.51042C1.57292 0 0 1.57292 0 3.51042V9.51042L3.33333 20.1562C4.21875 22.9896 6.625 24.9896 9.48958 25.3854V32.2708C9.48958 36.5312 12.9583 40 17.2188 40C21.4792 40 24.9479 36.5312 24.9479 32.2708V13.9688C24.9479 11.7292 26.7708 9.90625 29.0104 9.90625C31.25 9.90625 33.0729 11.7292 33.0729 13.9688V20.1562C30.4688 20.6979 28.5104 23.0104 28.5104 25.7812C28.5104 28.9479 31.0833 31.5208 34.25 31.5208C37.4167 31.5208 39.9896 28.9479 39.9896 25.7812C40 23.0104 38.0312 20.6875 35.4167 20.1458ZM5.5625 19.4583L5.4375 19.0625C6.96875 20.0104 8.71875 20.5104 10.5521 20.5104C12.3854 20.5104 14.125 20.0104 15.6667 19.0625L15.5417 19.4583C14.8542 21.6458 12.8542 23.125 10.5521 23.125C8.25 23.1146 6.25 21.6458 5.5625 19.4583ZM34.2604 29.1771C32.3854 29.1771 30.8542 27.6458 30.8542 25.7708C30.8542 23.8958 32.3854 22.3646 34.2604 22.3646C36.1354 22.3646 37.6667 23.8958 37.6667 25.7708C37.6562 27.6562 36.1354 29.1771 34.2604 29.1771Z" fill="white"/>
<path d="M35.4271 24.6042H33.0834V26.9479H35.4271V24.6042Z" fill="white"/>
</svg>
