<svg width="40" height="40" viewBox="0 0 40 40" fill="none" xmlns="http://www.w3.org/2000/svg">
<path d="M30.3125 21.3281H31.4844V18.5156H31.5781L33.8281 16.2656V14.6094H40V8.35938H39.0156L14.0391 0.0625L13.8594 0H10.1016L0.726562 8.35938H0V14.6094H7.03125V40H17.1875V14.6094H26.7969V16.2656L29.0469 18.5156H29.1406V19.1953C27.8438 19.6719 26.9141 20.9219 26.9141 22.3828C26.9141 23.4609 27.4219 24.4219 28.2109 25.0469L23.75 28.4375H20.625V34.6875H40V28.4375H36.875L32.4141 25.0469C33.2031 24.4219 33.7109 23.4609 33.7109 22.3828H31.3672C31.3672 22.9609 30.8906 23.4375 30.3125 23.4375C29.7344 23.4375 29.2578 22.9609 29.2578 22.3828C29.2578 21.8047 29.7344 21.3281 30.3125 21.3281ZM37.6562 12.2656H17.1875V10.7031H37.6562V12.2656ZM9.375 32.1875H13.1875L9.375 36V32.1875ZM9.375 24.375H13.1875L9.375 28.1875V24.375ZM14.8438 8.75V14.2188H9.375V8.75H14.8438ZM31.5859 8.35938H17.1875V6.40625H13.2812V2.34375H13.4844L31.5859 8.35938ZM10.9375 2.39062V6.40625H7.03125V8.35938H4.25L10.9375 2.39062ZM2.34375 10.7031H7.03125V12.2656H2.34375V10.7031ZM13.1875 16.5625L9.375 20.375V16.5625H13.1875ZM11.0312 37.6562L14.8438 33.8438V37.6562H11.0312ZM11.0312 29.8438L14.8438 26.0312V29.8438H11.0312ZM11.0312 22.0312L14.8438 18.2188V22.0312H11.0312ZM31.4844 14.6094V15.2969L30.6094 16.1719H30.0156L29.1406 15.2969V14.6094H31.4844ZM37.6562 32.3438H22.9688V30.7812H37.6562V32.3438ZM27.625 28.4375L30.3125 26.3906L33 28.4375H27.625Z" fill="white"/>
</svg>
