<?xml version="1.0" encoding="UTF-8" standalone="no"?>
<svg
   xmlns:dc="http://purl.org/dc/elements/1.1/"
   xmlns:cc="http://creativecommons.org/ns#"
   xmlns:rdf="http://www.w3.org/1999/02/22-rdf-syntax-ns#"
   xmlns:svg="http://www.w3.org/2000/svg"
   xmlns="http://www.w3.org/2000/svg"
   xmlns:sodipodi="http://sodipodi.sourceforge.net/DTD/sodipodi-0.dtd"
   xmlns:inkscape="http://www.inkscape.org/namespaces/inkscape"
   xml:space="preserve"
   width="500"
   height="557.89716"
   style="clip-rule:evenodd;fill-rule:evenodd;image-rendering:optimizeQuality;shape-rendering:geometricPrecision;text-rendering:geometricPrecision"
   viewBox="0 0 500 557.89713"
   version="1.1"
   id="svg55"
   sodipodi:docname="svg.svg"
   inkscape:version="1.0 (4035a4fb49, 2020-05-01)"><metadata
   id="metadata59"><rdf:RDF><cc:Work
       rdf:about=""><dc:format>image/svg+xml</dc:format><dc:type
         rdf:resource="http://purl.org/dc/dcmitype/StillImage" /></cc:Work></rdf:RDF></metadata><sodipodi:namedview
   inkscape:document-rotation="0"
   pagecolor="#ffffff"
   bordercolor="#666666"
   borderopacity="1"
   objecttolerance="10"
   gridtolerance="10"
   guidetolerance="10"
   inkscape:pageopacity="0"
   inkscape:pageshadow="2"
   inkscape:window-width="1920"
   inkscape:window-height="1017"
   id="namedview57"
   showgrid="false"
   inkscape:zoom="1"
   inkscape:cx="250.57073"
   inkscape:cy="281.6155"
   inkscape:window-x="-8"
   inkscape:window-y="-8"
   inkscape:window-maximized="1"
   inkscape:current-layer="svg55" />
 <defs
   id="defs7"><style
     type="text/css"
     id="style2">
   <![CDATA[
    .str1 {stroke:#1F1A17;stroke-width:0.00762}
    .str7 {stroke:#1F1A17;stroke-width:0.035}
    .str10 {stroke:#1F1A17;stroke-width:0.04}
    .str6 {stroke:#1F1A17;stroke-width:0.05}
    .str8 {stroke:#1F1A17;stroke-width:0.07}
    .str3 {stroke:#1F1A17;stroke-width:0.07;stroke-linejoin:round}
    .str4 {stroke:#1F1A17;stroke-width:0.07;stroke-linecap:round}
    .str5 {stroke:#1F1A17;stroke-width:0.08}
    .str9 {stroke:#1F1A17;stroke-width:0.1;stroke-linejoin:round}
    .str2 {stroke:#007CC3;stroke-width:0.4}
    .str0 {stroke:#FFF500;stroke-width:0.4}
    .fil1 {fill:none}
    .fil2 {fill:#007CC3}
    .fil3 {fill:#00923F}
    .fil7 {fill:#1F1A17}
    .fil4 {fill:#DA251D}
    .fil0 {fill:#FFF500}
    .fil6 {fill:white}
    .fil5 {fill:blue}
   ]]>
  </style><clipPath
     id="id0">
     <path
   d="M 0,0 H 19.8105 V 22.0284 H 0 Z"
   id="path4" />
    </clipPath></defs>
 <g
   transform="matrix(11.681444,0,0,11.681444,-4.2389845,-0.65631737)"
   id="g1004"><g
     transform="matrix(2.32883,0,0,2.32883,-1.303321,-1.3054693)"
     id="g11"
     clip-path="url(#id0)">
    
   </g><path
     id="_120614232"
     class="fil0 str0"
     d="M 26.632299,43.77714 C 50.663752,41.345934 37.051647,32.583106 37.683692,22.164922 37.84855,19.447364 39.487697,16.77736 42.892726,14.239681 L 40.23397,10.329901 C 34.111965,12.515857 29.361827,11.271866 25.381321,8.1038423 L 18.14737,8.0825801 C 14.166864,11.250604 9.416726,12.494595 3.294721,10.308639 l -2.65875535,3.909779 c 3.40502885,2.53768 5.04417585,5.207683 5.20903375,7.925242 0.6320445,10.418184 -12.98006,19.181012 11.0513926,21.612217 1.989031,0.201211 4.867953,3.743058 4.867953,3.743058 0,0 2.878924,-3.520584 4.867954,-3.721795 z"
     sodipodi:nodetypes="cccccccccccc" /><path
     id="_120612288"
     class="fil2 str2"
     d="m 26.168676,43.127815 c 22.86408,-1.773217 10.991215,-9.780899 10.915086,-20.37165 -0.136982,-2.576291 1.473171,-6.247226 4.763249,-8.653 L 39.866993,11.137889 C 34.262268,13.210221 28.893826,11.946132 25.249649,8.94278 H 18.40077 c -3.6442,3.003352 -9.184696,4.3248 -14.7894213,2.252468 l -1.8079639,3.022635 c 3.1173485,2.405774 4.7271057,5.675149 4.8780139,8.251464 -0.3679784,10.419674 -12.2312248,19.050202 10.8003213,20.658468 1.826315,0.127527 4.343478,3.19802 4.343478,3.19802 0,0 2.518257,-3.056473 4.343478,-3.19802 z"
     sodipodi:nodetypes="sccccccccscs" /><line
     y2="22.615807"
     x2="36.427216"
     y1="22.615807"
     x1="6.7721996"
     class="fil1 str1"
     id="_120614448" /><line
     y2="32.710819"
     x2="35.547615"
     y1="32.710819"
     x1="7.5340071"
     class="fil1 str1"
     id="_120613512" /><path
     d="M 36.427219,22.615807 H 21.978715 l 0.113437,10.095151 H 35.54762 c 0.140475,-0.510899 0.24143,-1.028435 0.298369,-1.549929 0.304099,-2.785398 0.460876,-5.67133 0.58123,-8.545222 z"
     class="fil3"
     id="_120614064"
     style="stroke-width:2.32883" /><path
     d="M 21.647928,22.615807 H 36.41653 c 0.151816,-3.546296 0.246995,-7.074241 0.498532,-10.372353 -2.693827,2.796017 -7.809755,1.613344 -10.054048,-0.871914 -0.869143,-0.962459 -2.537563,-1.8832781 -5.363249,-1.8296218 z"
     class="fil4"
     id="_120612144"
     style="stroke-width:2.32883" /><path
     d="M 35.54762,32.710818 H 21.764159 v 10.8962 c 5.298508,-0.235235 12.164784,-5.149229 13.783461,-10.8962 z"
     class="fil3"
     id="_120615384"
     style="stroke-width:2.32883" /><path
     d="m 21.731463,32.710818 h 13.794126 c 0.144015,-0.510898 0.247508,-1.028434 0.305892,-1.549929 0.311737,-2.785397 0.472473,-5.67133 0.595854,-8.545222 H 21.615161 Z"
     class="fil5"
     id="_120612024"
     style="stroke-width:2.32883" /><path
     d="M 21.675058,22.615807 H 6.6459773 C 6.4914595,19.069511 6.3946267,15.541566 6.1386417,12.243454 8.8799774,15.039471 14.086123,13.856798 16.37003,11.37154 c 0.884467,-0.962459 2.5823,-1.8832781 5.457823,-1.8296218 z"
     class="fil4"
     id="_120612000"
     style="stroke-width:2.32883" /><path
     d="M 7.5300943,32.710818 H 21.731463 l 0.03281,10.8962 C 16.372313,43.371783 9.1772991,38.457789 7.5300943,32.710818 Z"
     class="fil3"
     id="_120612960"
     style="stroke-width:2.32883" /><path
     d="M 21.731463,32.710818 H 7.5526141 C 7.4060609,32.19992 7.3007512,31.682384 7.2413427,31.160889 6.9240862,28.375492 6.7605325,25.489559 6.634962,22.615667 h 15.129314 z"
     class="fil5"
     id="_120612072"
     style="stroke-width:2.32883" /><path
     d="m 34.375985,20.122445 -0.03882,-0.455403 c -3.868699,-0.09718 -7.355354,0.604215 -10.251906,2.312389 -1.527876,0.137121 -3.044666,-0.309292 -3.539682,-0.0053 0.264485,0.706311 0.514252,1.156381 1.064788,1.563576 0.15836,0.117117 -0.824523,0.659804 -2.037284,1.662388 -1.229483,1.016395 -2.773613,2.044527 -3.905797,3.176711 -0.143922,0.143922 -0.744248,0.677689 -1.124476,0.697787 -2.054284,0.108617 -6.100673,0.245668 -5.0220753,0.669073 0.9711453,0 2.2542143,0.840125 2.8916383,1.158756 0.233884,0.116907 -1.117769,2.801233 -1.15319,3.013436 1.593432,-1.010316 2.602631,-3.456659 3.722239,-3.81977 1.767838,-0.573288 3.241615,-1.4085 5.08514,-1.830973 l -0.929227,1.359431 c 0.77061,-0.171844 0.827015,-1.179249 2.009664,-1.67536 l 3.946296,-1.655472 c 0.256102,-0.107429 -0.518164,1.670004 -0.435654,1.935165 0.264602,0.180391 1.307452,-1.808593 2.110968,-2.659594 0.328388,-0.347811 2.57033,-1.320819 3.569701,-1.764601 2.420958,-1.075057 3.981251,-2.451582 4.649648,-3.695154 z"
     class="fil6 str3"
     id="_120613560" /><path
     d="m 16.473244,28.875235 c 6.494501,-3.165904 10.623774,-5.073542 13.996478,-7.857518"
     class="fil1 str4"
     id="_120614040" /><path
     d="m 30.391823,20.654257 c -0.0952,0.799044 1.313041,2.123124 2.560432,1.652677"
     class="fil1 str5"
     id="_120612648" /><ellipse
     cy="38.674858"
     cx="-0.48933128"
     ry="0.65241069"
     rx="0.50984019"
     transform="rotate(-58.871011)"
     class="fil6 str6"
     id="_120613488" /><ellipse
     cy="36.616825"
     cx="8.0432472"
     ry="0.63126606"
     rx="0.32872331"
     transform="matrix(0.79341128,-0.60868591,0.722947,0.69090349,0,0)"
     class="fil6 str7"
     id="_120612120" /><path
     d="m 31.776312,20.69755 c 0.136516,0.591802 0.56586,0.858243 1.131556,0.858243"
     class="fil1 str6"
     id="_120615576" /><path
     d="m 34.179199,19.668626 c -0.223963,0.306357 -0.539007,1.301234 -0.441919,1.41686 l 0.703563,-1.002002"
     class="fil1 str8"
     id="_120613992" /><path
     d="m 33.680364,28.746917 -0.03093,-0.362715 c -3.081391,-0.07741 -5.858475,0.481229 -8.165553,1.841778 -1.216954,0.109222 -2.425081,-0.246344 -2.819352,-0.0042 0.210666,0.562576 0.409618,0.921052 0.84809,1.245365 0.126153,0.09329 -0.656707,0.525547 -1.622682,1.324103 -0.97925,0.809548 -2.209152,1.628435 -3.110945,2.530227 -0.114601,0.114625 -0.59278,0.539777 -0.895621,0.555776 -1.636236,0.08652 -4.85915,0.195668 -4.000045,0.532906 0.773521,0 1.795481,0.669166 2.303166,0.922962 0.186283,0.09311 -0.890288,2.231159 -0.918514,2.400162 1.269166,-0.804727 2.072985,-2.753236 2.964741,-3.04243 1.408057,-0.456637 2.581927,-1.121868 4.050278,-1.45836 l -0.740126,1.082789 c 0.613786,-0.136888 0.65871,-0.939287 1.600698,-1.334443 l 3.143176,-1.31856 c 0.204005,-0.08556 -0.412692,1.330158 -0.346973,1.541336 0.21076,0.143689 1.04136,-1.440521 1.681346,-2.118327 0.261574,-0.277037 2.047274,-1.052025 2.843245,-1.405519 1.928271,-0.856264 3.171051,-1.952654 3.703422,-2.943152 z"
     class="fil6 str9"
     id="_120615144" /><path
     d="m 19.420844,35.718269 c 5.172821,-2.52161 8.461758,-4.041032 11.14811,-6.258451"
     class="fil1 str6"
     id="_120613056" /><path
     d="m 30.506867,29.170531 c -0.07583,0.636423 1.045831,1.691033 2.039357,1.316348"
     class="fil1 str6"
     id="_120612240" /><ellipse
     cy="42.772793"
     cx="-8.0208006"
     ry="0.51964074"
     rx="0.40608433"
     transform="rotate(-58.871034)"
     class="fil6 str6"
     id="_120613584" /><ellipse
     cy="43.257629"
     cx="1.5058661"
     ry="0.50279933"
     rx="0.26182541"
     transform="matrix(0.79341147,-0.60868566,0.72294692,0.69090358,0,0)"
     class="fil6 str7"
     id="_120612912" /><path
     d="m 31.609568,29.204998 c 0.108733,0.471355 0.450699,0.683558 0.901281,0.683558"
     class="fil1 str6"
     id="_120612216" /><path
     d="m 33.523634,28.385482 c -0.178389,0.244015 -0.42932,1.036423 -0.35198,1.128505 l 0.560387,-0.798067"
     class="fil1 str8"
     id="_120611904" /><path
     d="m 29.058801,14.740263 -0.03153,-0.370098 c -3.144176,-0.07899 -5.977827,0.491034 -8.331902,1.879296 -1.241732,0.111458 -2.474475,-0.251351 -2.87678,-0.0043 0.214951,0.574033 0.417955,0.939822 0.86537,1.270749 0.128714,0.09518 -0.670098,0.536236 -1.655728,1.351047 -0.999208,0.82606 -2.254168,1.661644 -3.174312,2.581788 -0.116954,0.116954 -0.604867,0.550768 -0.91388,0.567093 -1.669561,0.08826 -4.9581253,0.199651 -4.0815304,0.543759 0.7892637,0 1.8320444,0.682789 2.3500924,0.941755 0.190079,0.09502 -0.90843,2.276617 -0.937238,2.449067 1.295039,-0.821099 2.11523,-2.80929 3.02515,-3.104399 1.436749,-0.465929 2.634513,-1.144713 4.132765,-1.488053 l -0.755193,1.104844 c 0.626293,-0.139684 0.672124,-0.958407 1.633302,-1.361621 l 3.207218,-1.345411 c 0.208151,-0.08731 -0.421122,1.357242 -0.354075,1.572728 0.215067,0.146624 1.062598,-1.469864 1.715626,-2.16148 0.266907,-0.282697 2.08896,-1.073474 2.901163,-1.43414 1.967559,-0.87373 3.235653,-1.99243 3.778853,-3.003119 z"
     class="fil6 str9"
     id="_120612480" /><path
     d="m 14.508946,21.85386 c 5.2782,-2.572984 8.634137,-4.123356 11.375194,-6.385954"
     class="fil1 str6"
     id="_120612600" /><path
     d="m 25.820795,15.17247 c -0.07736,0.649418 1.06714,1.7255 2.080903,1.343176"
     class="fil1 str6"
     id="_120612408" /><ellipse
     cy="31.557037"
     cx="1.5630107"
     ry="0.53022623"
     rx="0.41435656"
     transform="rotate(-58.871011)"
     class="fil6 str6"
     id="_120613536" /><ellipse
     cy="29.153965"
     cx="8.5009136"
     ry="0.5130409"
     rx="0.26715899"
     transform="matrix(0.79341106,-0.6086862,0.72294707,0.69090342,0,0)"
     class="fil6 str7"
     id="_120613440" /><path
     d="m 26.946086,15.207682 c 0.110946,0.48095 0.459874,0.697485 0.919632,0.697485"
     class="fil1 str6"
     id="_120612264" /><path
     d="m 28.899043,14.371446 c -0.181998,0.248975 -0.438053,1.057545 -0.359129,1.151513 l 0.571798,-0.814345"
     class="fil1 str8"
     id="_120613680" /><ellipse
     style="stroke-width:1.13897"
     cy="36.717022"
     cx="8.1979046"
     ry="0.34880599"
     rx="0.18163592"
     transform="matrix(0.79341043,-0.60868702,0.72294755,0.69090292,0,0)"
     class="fil7"
     id="_120611928" /><ellipse
     style="stroke-width:0.847438"
     cy="29.305729"
     cx="8.6323824"
     ry="0.25952432"
     rx="0.13514368"
     transform="matrix(0.79341164,-0.60868544,0.72294671,0.6909038,0,0)"
     class="fil7"
     id="_120615264" /><ellipse
     style="stroke-width:0.847438"
     cy="40.338982"
     cx="11.84161"
     ry="0.25952423"
     rx="0.13514379"
     transform="matrix(0.91317057,-0.40757761,0.54253608,0.8400325,0,0)"
     class="fil7"
     id="_120614424" /><path
     d="m 20.666372,5.9298097 1.040545,-1.0020024 1.023451,1.0020024 -1.023451,1.0405445 z M 19.509363,0.09848916 21.69837,1.8321634 23.811295,0.09846587 V 3.754403 H 27.25284 L 25.646785,5.7196561 27.25284,7.8309967 H 23.811295 V 11.799719 L 21.69837,9.54441 19.509363,11.799719 V 7.8309967 H 15.551586 L 17.329718,5.7196328 15.551586,3.754403 h 3.957777 z"
     class="fil0 str10"
     id="_121814632" /></g>
</svg>
